<svg width="800px" height="800px" viewBox="0 0 36 36"  xmlns="http://www.w3.org/2000/svg" >
  <path fill="#dec028" d="M7.5 16.375C11.5 10.375 24.5 10.375 28.5 16.375V6.375L23.25 11.625 18 1.875 12.75 11.625 7.5 6.375V16.375Z"/>
  <path fill="#8b00ff" d="M5.5 20.375C10.5 10.375 25.5 10.375 30.5 20.375 31.5 22.375 31.5 28.375 30.5 30.375 25.5 35.375 10.5 35.375 5.5 30.375 4.5 28.375 4.5 22.375 5.5 20.375ZM15.5 23.375A1 1 0 009.5 23.375 1 1 0 0015.5 23.375ZM20.5 23.375A1 1 0 0026.5 23.375 1 1 0 0020.5 23.375ZM4.5 20.375C-1.5 21.375-1.5 29.375 4.5 30.375 3.5 28.375 3.5 22.375 4.5 20.375ZM31.5 20.375C37.5 21.375 37.5 29.375 31.5 30.375 32.5 28.375 32.5 22.375 31.5 20.375Z"/>
</svg>